<svg width="122" height="31" fill="none" xmlns="http://www.w3.org/2000/svg"><path d="M0 5a5 5 0 015-5h117v31H5a5 5 0 01-5-5V5z" fill="#212020"/><path d="M29.156 20.417c0 .807-.185 1.457-.556 1.948-.372.489-.87.733-1.495.733-.667 0-1.183-.236-1.547-.708l-.044.61h-.83v-7.5h.903v2.798c.364-.453.867-.679 1.509-.679.641 0 1.144.243 1.509.728.367.485.551 1.149.551 1.992v.078zm-.903-.103c0-.615-.119-1.09-.357-1.425-.237-.336-.579-.503-1.025-.503-.596 0-1.024.276-1.284.83V21.5c.277.553.708.83 1.294.83.433 0 .77-.168 1.01-.503.242-.335.362-.84.362-1.514zm3.716 1.363l1.23-3.96h.967l-2.124 6.098c-.329.88-.851 1.319-1.567 1.319l-.171-.015-.337-.063v-.733l.244.02c.306 0 .544-.062.713-.186.172-.123.314-.35.425-.678l.2-.538-1.885-5.224h.986l1.319 3.96zm8.042-3.15a2.716 2.716 0 00-.445-.034c-.592 0-.994.252-1.206.757V23h-.903v-5.283h.879l.015.61c.296-.472.716-.708 1.26-.708.175 0 .309.023.4.069v.84zm.498 1.783c0-.518.1-.983.303-1.397.205-.413.488-.732.85-.957a2.318 2.318 0 011.244-.337c.72 0 1.3.25 1.743.747.446.498.67 1.16.67 1.988v.063c0 .514-.1.977-.299 1.387a2.225 2.225 0 01-.844.952 2.328 2.328 0 01-1.26.342c-.716 0-1.297-.25-1.743-.747-.443-.498-.664-1.158-.664-1.978v-.063zm.908.107c0 .586.135 1.056.405 1.411.274.355.638.532 1.094.532a1.3 1.3 0 001.094-.537c.27-.361.405-.866.405-1.513 0-.58-.138-1.049-.415-1.407a1.303 1.303 0 00-1.094-.542c-.446 0-.805.178-1.079.533-.273.354-.41.862-.41 1.523zm5.884-2.7l.024.586c.388-.456.91-.684 1.568-.684.739 0 1.241.283 1.508.85a2.01 2.01 0 01.684-.616 2.04 2.04 0 011-.234c1.16 0 1.749.614 1.768 1.841V23h-.903v-3.486c0-.378-.086-.66-.259-.845-.172-.189-.462-.283-.869-.283-.335 0-.613.1-.835.303-.221.198-.35.467-.385.805V23h-.909v-3.462c0-.768-.376-1.152-1.128-1.152-.592 0-.997.252-1.215.757V23h-.904v-5.283h.855zM58.482 23c-.052-.104-.094-.29-.127-.557-.42.437-.92.655-1.503.655-.521 0-.95-.147-1.285-.44a1.44 1.44 0 01-.498-1.123c0-.55.209-.976.625-1.28.42-.305 1.01-.458 1.768-.458h.879v-.415c0-.316-.095-.567-.283-.752-.19-.189-.468-.283-.835-.283-.323 0-.593.081-.81.244-.219.163-.328.36-.328.59h-.908c0-.263.093-.517.278-.761.189-.248.443-.443.762-.586a2.58 2.58 0 011.06-.215c.608 0 1.085.153 1.43.46.345.302.524.72.537 1.254v2.432c0 .485.062.87.186 1.157V23h-.948zm-1.499-.689c.284 0 .552-.073.806-.22.254-.146.438-.336.552-.57v-1.085h-.708c-1.107 0-1.66.324-1.66.972 0 .283.094.505.283.664.189.16.431.24.727.24zm4.532-4.594l.029.664a1.925 1.925 0 011.582-.762c1.117 0 1.68.63 1.69 1.89V23h-.904v-3.496c-.003-.381-.091-.663-.264-.845-.169-.182-.434-.273-.796-.273a1.3 1.3 0 00-.77.234 1.591 1.591 0 00-.519.615V23h-.903v-5.283h.855zm8.471 6.02h-4.472V23h4.472v.737zm1.929-7.3v1.28h.986v.698h-.986v3.276c0 .212.044.372.132.479.088.104.237.156.45.156.103 0 .246-.02.429-.058V23a2.62 2.62 0 01-.694.098c-.403 0-.708-.122-.913-.367-.205-.244-.307-.59-.307-1.04v-3.276h-.962v-.698h.962v-1.28h.903zM74.942 23h-.903v-5.283h.903V23zm-.976-6.685c0-.146.044-.27.132-.37.09-.102.224-.152.4-.152.176 0 .31.05.4.151a.53.53 0 01.137.371.516.516 0 01-.137.367c-.09.097-.224.146-.4.146-.176 0-.31-.049-.4-.146a.527.527 0 01-.132-.367zm3.276 1.402l.025.586c.387-.456.91-.684 1.567-.684.739 0 1.242.283 1.509.85.176-.254.403-.46.683-.616a2.04 2.04 0 011.001-.234c1.16 0 1.748.614 1.768 1.841V23h-.903v-3.486c0-.378-.087-.66-.26-.845-.172-.189-.461-.283-.868-.283-.336 0-.614.1-.835.303-.222.198-.35.467-.386.805V23h-.908v-3.462c0-.768-.376-1.152-1.128-1.152-.593 0-.998.252-1.216.757V23h-.903v-5.283h.854zm7.68 2.593c0-.518.102-.983.304-1.397.205-.413.488-.732.85-.957a2.318 2.318 0 011.244-.337c.72 0 1.3.25 1.744.747.445.498.668 1.16.668 1.988v.063c0 .514-.099.977-.297 1.387a2.225 2.225 0 01-.845.952 2.327 2.327 0 01-1.26.342c-.716 0-1.297-.25-1.743-.747-.443-.498-.664-1.158-.664-1.978v-.063zm.91.107c0 .586.134 1.056.404 1.411.274.355.638.532 1.094.532.46 0 .824-.179 1.094-.537.27-.361.405-.866.405-1.513 0-.58-.138-1.049-.415-1.407a1.303 1.303 0 00-1.094-.542c-.446 0-.805.178-1.079.533-.273.354-.41.862-.41 1.523zm8.11 1.182a.657.657 0 00-.279-.567c-.182-.137-.503-.254-.962-.351-.456-.098-.819-.215-1.089-.352-.267-.137-.465-.3-.595-.488a1.178 1.178 0 01-.19-.674c0-.433.181-.8.546-1.099.368-.3.837-.449 1.406-.449.6 0 1.084.155 1.455.464.375.31.562.705.562 1.187h-.908c0-.248-.106-.461-.318-.64-.208-.18-.472-.269-.79-.269-.33 0-.587.072-.772.215a.676.676 0 00-.278.562c0 .218.086.382.258.493.173.11.484.216.933.317.452.101.819.222 1.098.362.28.14.487.309.62.507.137.196.206.435.206.718 0 .472-.19.851-.567 1.138-.377.283-.867.425-1.47.425a2.66 2.66 0 01-1.123-.225 1.851 1.851 0 01-.766-.625 1.533 1.533 0 01-.273-.874h.903a.945.945 0 00.361.723c.228.175.528.263.899.263.341 0 .615-.068.82-.205.208-.14.312-.325.312-.556zm4.199.761c.322 0 .603-.097.844-.293.241-.195.375-.44.4-.732h.855c-.016.303-.12.59-.312.864s-.45.492-.772.654a2.204 2.204 0 01-1.015.245c-.72 0-1.293-.24-1.72-.718-.422-.482-.634-1.14-.634-1.973v-.151c0-.515.094-.972.283-1.372.19-.4.46-.712.81-.933.356-.221.774-.332 1.256-.332.592 0 1.084.178 1.474.532.394.355.604.816.63 1.382h-.854a1.23 1.23 0 00-.39-.84 1.194 1.194 0 00-.86-.332c-.46 0-.816.166-1.07.498-.25.33-.376.806-.376 1.431v.17c0 .61.126 1.078.376 1.407.251.329.61.493 1.075.493zm4.018-4.004c.401-.491.921-.737 1.563-.737 1.116 0 1.679.63 1.689 1.89V23h-.903v-3.496c-.003-.381-.091-.663-.264-.845-.169-.182-.434-.273-.796-.273-.293 0-.55.078-.771.234a1.59 1.59 0 00-.518.615V23h-.903v-7.5h.903v2.856zm7.866 4.121c-.351.414-.867.62-1.547.62-.564 0-.993-.162-1.29-.488-.292-.328-.441-.813-.444-1.455v-3.437h.903v3.413c0 .8.326 1.201.977 1.201.69 0 1.149-.257 1.377-.771v-3.843h.903V23h-.859l-.02-.523zm3.731-1.923l-.567.59V23h-.903v-7.5h.903v4.536l.484-.58 1.645-1.74h1.099l-2.056 2.208L116.656 23h-1.059l-1.841-2.446zm-19.514-9.066c.258 0 .483-.078.676-.234a.825.825 0 00.32-.586h.684a1.31 1.31 0 01-.25.691 1.64 1.64 0 01-.617.524c-.256.13-.526.195-.813.195-.575 0-1.034-.191-1.375-.574-.338-.386-.508-.912-.508-1.578v-.121c0-.412.076-.778.227-1.098a1.73 1.73 0 01.648-.746 1.857 1.857 0 011.004-.266c.474 0 .868.142 1.18.426.315.284.483.652.504 1.106h-.684a.985.985 0 00-.312-.672.955.955 0 00-.688-.266c-.367 0-.652.133-.855.399-.2.263-.301.644-.301 1.144v.137c0 .487.1.862.3 1.125.201.263.488.394.86.394zm2.301-1.64c0-.414.08-.787.242-1.118.164-.33.39-.585.68-.765.291-.18.623-.27.996-.27.576 0 1.04.2 1.395.598.356.398.535.928.535 1.59v.05c0 .412-.08.782-.239 1.11a1.78 1.78 0 01-.675.762 1.862 1.862 0 01-1.008.273c-.573 0-1.038-.2-1.395-.598-.354-.398-.531-.925-.531-1.582v-.05zm.726.086c0 .468.109.845.325 1.129.219.283.51.425.875.425.367 0 .659-.143.875-.43.216-.288.324-.692.324-1.21 0-.464-.11-.839-.332-1.125a1.042 1.042 0 00-.875-.434c-.357 0-.645.142-.863.426-.22.284-.329.69-.329 1.219zm3.852-.082c0-.649.154-1.17.461-1.563.307-.396.71-.594 1.207-.594.495 0 .887.17 1.176.508V6h.723v6h-.665l-.035-.453c-.289.354-.691.531-1.207.531-.489 0-.889-.2-1.199-.601-.307-.402-.461-.925-.461-1.57v-.055zm.723.082c0 .479.099.854.297 1.125a.96.96 0 00.82.406c.458 0 .793-.206 1.004-.617V8.906c-.216-.398-.548-.597-.996-.597-.354 0-.63.136-.828.41-.198.273-.297.678-.297 1.215zM106.598 12h-.723V7.773h.723V12zm-.782-5.348a.44.44 0 01.106-.297c.073-.08.18-.12.32-.12.141 0 .248.04.32.12.073.081.11.18.11.297a.413.413 0 01-.11.293c-.072.078-.179.117-.32.117-.14 0-.247-.039-.32-.117a.423.423 0 01-.106-.293zm2.625 1.121l.024.532a1.54 1.54 0 011.265-.61c.894 0 1.344.504 1.352 1.512V12h-.723V9.203c-.002-.305-.073-.53-.211-.676-.135-.145-.347-.218-.636-.218-.235 0-.44.062-.617.187-.178.125-.316.29-.415.492V12h-.722V7.773h.683zM112 9.852c0-.66.152-1.183.457-1.57a1.46 1.46 0 011.211-.587c.516 0 .918.183 1.207.547l.035-.469h.66v4.125c0 .547-.162.978-.488 1.293-.323.316-.758.473-1.305.473-.304 0-.603-.065-.894-.195a1.535 1.535 0 01-.668-.535l.375-.434c.31.383.689.574 1.137.574.351 0 .625-.099.82-.297.198-.198.297-.476.297-.836v-.363c-.289.334-.684.5-1.184.5-.495 0-.896-.2-1.203-.598-.305-.398-.457-.94-.457-1.628zm.727.082c0 .476.097.851.293 1.125.195.27.468.406.82.406.456 0 .79-.207 1.004-.621v-1.93c-.222-.404-.554-.605-.996-.605a.961.961 0 00-.825.41c-.197.273-.296.678-.296 1.215z" fill="#FEFEFE"/></svg>