<svg width="197" height="78" fill="none" xmlns="http://www.w3.org/2000/svg"><path d="M10.854 33.993h2.242c2.094 0 3.662-.41 4.702-1.23 1.04-.835 1.56-2.044 1.56-3.626 0-1.596-.44-2.776-1.318-3.537-.865-.762-2.227-1.143-4.087-1.143h-3.098v9.536zm15.381-5.098c0 3.457-1.084 6.102-3.252 7.933-2.153 1.83-5.222 2.746-9.206 2.746h-2.922V51H4.042V18.876h10.261c3.897 0 6.856.842 8.877 2.527 2.036 1.67 3.054 4.167 3.054 7.492zm10.877 9.778c0 2.432.395 4.27 1.186 5.515.806 1.246 2.11 1.868 3.911 1.868 1.788 0 3.07-.615 3.846-1.846.79-1.245 1.186-3.09 1.186-5.537 0-2.431-.395-4.255-1.186-5.47-.791-1.217-2.088-1.825-3.89-1.825-1.787 0-3.076.608-3.867 1.824-.79 1.201-1.186 3.025-1.186 5.471zm16.985 0c0 4-1.055 7.127-3.164 9.383-2.11 2.256-5.047 3.384-8.811 3.384-2.359 0-4.439-.513-6.24-1.539-1.802-1.04-3.187-2.527-4.153-4.46-.967-1.934-1.45-4.19-1.45-6.768 0-4.013 1.047-7.133 3.141-9.36 2.095-2.227 5.04-3.34 8.833-3.34 2.359 0 4.439.513 6.24 1.538 1.802 1.026 3.187 2.498 4.154 4.417.966 1.919 1.45 4.167 1.45 6.745zm19.248-12.7c.908 0 1.662.066 2.263.198l-.505 6.284c-.542-.146-1.202-.22-1.978-.22-2.139 0-3.809.55-5.01 1.648-1.186 1.099-1.78 2.637-1.78 4.615V51h-6.701V26.435h5.076l.988 4.13h.33a9.177 9.177 0 013.076-3.317c1.304-.85 2.717-1.275 4.24-1.275zM90.418 46.1c1.171 0 2.578-.256 4.218-.769v4.988c-1.67.747-3.72 1.12-6.152 1.12-2.68 0-4.636-.673-5.867-2.021-1.216-1.362-1.824-3.398-1.824-6.108V31.466h-3.208v-2.834l3.692-2.241 1.933-5.186h4.285v5.23h6.878v5.031h-6.878V43.31c0 .952.264 1.655.791 2.109.542.454 1.253.681 2.132.681zm22.785-14.634h-5.801V51h-6.701V31.466h-3.692v-3.23l3.692-1.801v-1.802c0-2.798.688-4.841 2.065-6.13 1.377-1.29 3.582-1.934 6.614-1.934 2.314 0 4.372.344 6.174 1.033l-1.714 4.921c-1.347-.424-2.592-.637-3.735-.637-.952 0-1.641.286-2.065.857-.425.557-.638 1.275-.638 2.154v1.538h5.801v5.031zm9.207 7.207c0 2.432.395 4.27 1.186 5.515.806 1.246 2.11 1.868 3.911 1.868 1.787 0 3.069-.615 3.846-1.846.791-1.245 1.186-3.09 1.186-5.537 0-2.431-.395-4.255-1.186-5.47-.791-1.217-2.088-1.825-3.89-1.825-1.787 0-3.076.608-3.867 1.824-.791 1.201-1.186 3.025-1.186 5.471zm16.985 0c0 4-1.055 7.127-3.165 9.383-2.109 2.256-5.046 3.384-8.811 3.384-2.358 0-4.438-.513-6.24-1.539-1.802-1.04-3.186-2.527-4.153-4.46-.966-1.934-1.45-4.19-1.45-6.768 0-4.013 1.048-7.133 3.142-9.36 2.095-2.227 5.039-3.34 8.833-3.34 2.359 0 4.439.513 6.241 1.538 1.801 1.026 3.186 2.498 4.152 4.417.967 1.919 1.451 4.167 1.451 6.745zM151.633 51h-6.701V16.81h6.701V51zm6.768-30.916c0-2.182 1.216-3.273 3.647-3.273 2.432 0 3.648 1.09 3.648 3.273 0 1.04-.308 1.854-.923 2.44-.601.57-1.509.856-2.725.856-2.431 0-3.647-1.098-3.647-3.296zM165.388 51h-6.701V26.435h6.701V51zm12.393-12.327c0 2.432.395 4.27 1.186 5.515.806 1.246 2.11 1.868 3.911 1.868 1.788 0 3.069-.615 3.846-1.846.791-1.245 1.186-3.09 1.186-5.537 0-2.431-.395-4.255-1.186-5.47-.791-1.217-2.088-1.825-3.89-1.825-1.787 0-3.076.608-3.867 1.824-.791 1.201-1.186 3.025-1.186 5.471zm16.985 0c0 4-1.055 7.127-3.164 9.383-2.11 2.256-5.047 3.384-8.811 3.384-2.359 0-4.439-.513-6.241-1.539-1.801-1.04-3.186-2.527-4.153-4.46-.966-1.934-1.45-4.19-1.45-6.768 0-4.013 1.048-7.133 3.142-9.36 2.095-2.227 5.039-3.34 8.833-3.34 2.359 0 4.439.513 6.241 1.538 1.801 1.026 3.186 2.498 4.152 4.417.967 1.919 1.451 4.167 1.451 6.745zM12.54 72h-1.313l-2.305-7.648c-.11-.339-.232-.766-.367-1.282-.136-.515-.206-.825-.211-.93a17.79 17.79 0 01-.547 2.258L5.563 72H4.25L1.21 60.578h1.407l1.805 7.055c.25.99.432 1.885.547 2.687.14-.953.349-1.885.625-2.797l2.047-6.945h1.406l2.148 7.008c.25.807.461 1.719.633 2.734.1-.74.287-1.64.563-2.703l1.796-7.039h1.407L12.539 72zm8.265.156c-1.266 0-2.266-.385-3-1.156-.73-.77-1.094-1.841-1.094-3.21 0-1.381.338-2.478 1.016-3.29.682-.813 1.596-1.219 2.742-1.219 1.073 0 1.922.354 2.547 1.063.625.703.937 1.633.937 2.789v.82h-5.898c.026 1.005.278 1.768.758 2.29.484.52 1.164.78 2.039.78.921 0 1.833-.192 2.734-.578v1.157a6.627 6.627 0 01-1.305.421 7.04 7.04 0 01-1.476.133zm-.352-7.789c-.687 0-1.237.224-1.648.672-.407.448-.646 1.068-.72 1.86h4.477c0-.818-.182-1.443-.546-1.876-.365-.437-.886-.656-1.563-.656zm9.703-1.07c1.125 0 1.998.385 2.617 1.156.625.766.938 1.852.938 3.258s-.315 2.5-.945 3.281c-.625.776-1.495 1.164-2.61 1.164a3.774 3.774 0 01-1.531-.304 2.91 2.91 0 01-1.156-.954h-.094L27.102 72h-.93V59.844h1.297v2.953c0 .661-.021 1.255-.063 1.781h.063c.604-.854 1.5-1.281 2.687-1.281zm-.187 1.086c-.886 0-1.524.255-1.914.765-.39.506-.586 1.36-.586 2.563s.2 2.065.601 2.586c.401.516 1.045.773 1.93.773.797 0 1.39-.289 1.781-.867.39-.583.586-1.42.586-2.508 0-1.114-.195-1.945-.586-2.492-.39-.547-.994-.82-1.812-.82zm16 6.469h-.07c-.6.87-1.495 1.304-2.688 1.304-1.12 0-1.992-.383-2.617-1.148-.62-.766-.93-1.854-.93-3.266 0-1.411.313-2.508.938-3.289.625-.781 1.494-1.172 2.609-1.172 1.161 0 2.052.422 2.672 1.266h.101l-.054-.617-.032-.602v-3.484h1.297V72h-1.054l-.172-1.148zm-2.594.218c.885 0 1.526-.24 1.922-.718.4-.485.601-1.264.601-2.336v-.274c0-1.213-.203-2.078-.609-2.594-.401-.52-1.044-.78-1.93-.78-.76 0-1.343.296-1.75.89-.4.588-.601 1.422-.601 2.5 0 1.094.2 1.92.601 2.476.401.558.99.836 1.766.836zm10.195 1.086c-1.265 0-2.265-.385-3-1.156-.729-.77-1.093-1.841-1.093-3.21 0-1.381.338-2.478 1.015-3.29.683-.813 1.597-1.219 2.742-1.219 1.073 0 1.922.354 2.547 1.063.625.703.938 1.633.938 2.789v.82H50.82c.026 1.005.279 1.768.758 2.29.484.52 1.164.78 2.04.78.921 0 1.832-.192 2.734-.578v1.157a6.631 6.631 0 01-1.305.421 7.041 7.041 0 01-1.477.133zm-.351-7.789c-.688 0-1.237.224-1.649.672-.406.448-.645 1.068-.718 1.86h4.476c0-.818-.182-1.443-.547-1.876-.364-.437-.885-.656-1.562-.656zM60.812 72l-3.25-8.563h1.391l1.844 5.079c.417 1.187.661 1.958.734 2.312h.063c.057-.276.237-.846.539-1.71.307-.87.992-2.764 2.054-5.68h1.391L62.328 72h-1.516zm13.532-4.29c0 1.397-.352 2.488-1.055 3.274-.703.782-1.674 1.172-2.914 1.172-.766 0-1.445-.18-2.04-.539-.593-.36-1.051-.875-1.374-1.547-.323-.672-.484-1.458-.484-2.36 0-1.395.349-2.48 1.046-3.257.698-.781 1.667-1.172 2.907-1.172 1.198 0 2.148.399 2.851 1.196.709.796 1.063 1.875 1.063 3.234zm-6.524 0c0 1.095.22 1.928.657 2.5.437.574 1.08.86 1.93.86.848 0 1.491-.283 1.929-.851.443-.573.664-1.41.664-2.508 0-1.089-.221-1.914-.664-2.477-.438-.567-1.086-.851-1.945-.851-.85 0-1.49.279-1.922.836-.432.557-.649 1.388-.649 2.492zM77.922 72h-1.297V59.844h1.297V72zm6.367.156c-1.266 0-2.266-.385-3-1.156-.73-.77-1.094-1.841-1.094-3.21 0-1.381.339-2.478 1.016-3.29.682-.813 1.596-1.219 2.742-1.219 1.073 0 1.922.354 2.547 1.063.625.703.938 1.633.938 2.789v.82h-5.899c.026 1.005.279 1.768.758 2.29.484.52 1.164.78 2.039.78.922 0 1.833-.192 2.734-.578v1.157a6.627 6.627 0 01-1.304.421 7.04 7.04 0 01-1.477.133zm-.352-7.789c-.687 0-1.236.224-1.648.672-.406.448-.646 1.068-.719 1.86h4.477c0-.818-.182-1.443-.547-1.876-.365-.437-.885-.656-1.563-.656zm9.704 7.79a3.774 3.774 0 01-1.532-.305 2.91 2.91 0 01-1.156-.954h-.094c.063.5.094.974.094 1.422v3.524h-1.297V63.438h1.055l.18 1.171h.062c.334-.468.721-.807 1.164-1.015.443-.209.95-.313 1.524-.313 1.135 0 2.01.388 2.625 1.164.62.776.93 1.865.93 3.266 0 1.406-.316 2.5-.946 3.281-.625.776-1.495 1.164-2.61 1.164zm-.188-7.774c-.875 0-1.508.242-1.898.726-.39.485-.592 1.256-.602 2.313v.289c0 1.203.2 2.065.602 2.586.4.516 1.044.773 1.93.773.739 0 1.317-.3 1.734-.898.422-.6.633-1.425.633-2.477 0-1.067-.211-1.885-.633-2.453-.417-.573-1.005-.86-1.766-.86zm9.633 7.773c-1.266 0-2.266-.385-3-1.156-.73-.77-1.094-1.841-1.094-3.21 0-1.381.339-2.478 1.016-3.29.682-.813 1.596-1.219 2.742-1.219 1.073 0 1.922.354 2.547 1.063.625.703.937 1.633.937 2.789v.82h-5.898c.026 1.005.279 1.768.758 2.29.484.52 1.164.78 2.039.78.922 0 1.833-.192 2.734-.578v1.157a6.612 6.612 0 01-1.305.421c-.406.089-.898.133-1.476.133zm-.352-7.789c-.687 0-1.237.224-1.648.672-.406.448-.646 1.068-.719 1.86h4.477c0-.818-.183-1.443-.547-1.876-.365-.437-.886-.656-1.563-.656zm9.625-1.086c.381 0 .722.032 1.024.094l-.18 1.203a4.42 4.42 0 00-.937-.117c-.693 0-1.287.281-1.782.844-.489.562-.734 1.263-.734 2.101V72h-1.297v-8.563h1.07l.149 1.586h.062c.318-.557.701-.986 1.149-1.289.448-.302.94-.453 1.476-.453z" fill="#fff"/></svg>